<svg xmlns="http://www.w3.org/2000/svg" xmlns:xlink="http://www.w3.org/1999/xlink" width="500" zoomAndPan="magnify" viewBox="0 0 375 374.999991" height="500" preserveAspectRatio="xMidYMid meet" version="1.0"><defs><clipPath id="0ace92afe6"><path d="M 12 56.332031 L 362.972656 56.332031 L 362.972656 318.832031 L 12 318.832031 Z M 12 56.332031 " clip-rule="nonzero"/></clipPath></defs><g clip-path="url(#0ace92afe6)"><path fill="#ffffff" d="M 362.65625 175.800781 C 362.289062 175.292969 361.5625 175.21875 361.050781 175.582031 C 351.945312 182.214844 342.253906 187.824219 332.125 192.339844 C 322 196.929688 311.507812 200.355469 300.722656 202.976562 C 279.230469 208.078125 257.078125 209.609375 235 208.878906 C 233.472656 208.808594 231.941406 208.734375 230.410156 208.660156 C 229.464844 204 228.589844 199.335938 227.714844 194.671875 L 224.511719 177.988281 C 223.417969 172.449219 222.398438 166.839844 221.230469 161.300781 C 218.972656 150.226562 216.640625 139.078125 214.164062 128.003906 C 211.613281 116.929688 208.992188 105.855469 206.074219 94.777344 C 204.617188 89.242188 203.089844 83.632812 201.339844 77.949219 C 200.464844 75.105469 199.519531 72.265625 198.28125 69.132812 C 197.988281 68.332031 197.625 67.527344 197.257812 66.65625 C 196.894531 65.78125 196.457031 64.90625 195.800781 63.738281 C 195.4375 63.15625 195.074219 62.574219 194.492188 61.773438 C 194.34375 61.554688 194.199219 61.335938 193.980469 61.117188 C 193.761719 60.898438 193.617188 60.679688 193.324219 60.386719 C 193.035156 60.097656 192.816406 59.878906 192.378906 59.515625 C 192.011719 59.222656 191.578125 58.859375 190.992188 58.492188 C 190.410156 58.128906 189.753906 57.691406 188.660156 57.253906 C 187.859375 56.890625 186.113281 56.453125 184.507812 56.382812 C 182.90625 56.382812 181.519531 56.601562 180.355469 57.035156 C 179.335938 57.402344 178.316406 57.910156 177.804688 58.277344 C 177.078125 58.710938 176.640625 59.078125 176.203125 59.441406 C 175.765625 59.804688 175.546875 60.023438 175.183594 60.386719 C 174.890625 60.679688 174.671875 60.898438 174.453125 61.191406 C 174.234375 61.410156 174.089844 61.628906 173.945312 61.84375 C 172.777344 63.449219 172.269531 64.46875 171.757812 65.414062 C 171.246094 66.363281 170.882812 67.238281 170.519531 68.039062 C 169.789062 69.640625 169.207031 71.097656 168.699219 72.554688 C 167.605469 75.472656 166.65625 78.238281 165.785156 81.007812 C 163.960938 86.546875 162.359375 92.011719 160.683594 97.476562 C 159.007812 102.941406 157.476562 108.332031 155.875 113.796875 L 151.136719 130.042969 C 145.019531 151.175781 138.898438 172.15625 132.121094 192.777344 L 119.734375 189.863281 C 116.894531 189.207031 114.125 188.625 111.0625 188.042969 C 109.535156 187.75 108.003906 187.457031 106.253906 187.242188 C 105.382812 187.167969 104.433594 187.023438 103.339844 187.023438 C 102.757812 187.023438 102.175781 187.023438 101.375 187.023438 C 100.574219 187.09375 99.769531 187.167969 98.3125 187.53125 C 97.585938 187.75 96.785156 187.96875 95.617188 188.625 C 95.035156 188.917969 94.453125 189.351562 93.722656 189.9375 C 93.066406 190.519531 92.339844 191.246094 91.683594 192.195312 C 91.027344 193.140625 90.589844 194.234375 90.300781 195.328125 C 90.007812 196.421875 89.933594 197.441406 89.933594 198.316406 C 89.933594 200.0625 90.300781 201.230469 90.589844 202.105469 C 90.734375 202.542969 90.882812 202.90625 91.101562 203.269531 C 91.320312 203.707031 91.464844 204 91.609375 204.289062 C 91.757812 204.582031 91.976562 204.871094 92.191406 205.164062 C 92.339844 205.382812 92.558594 205.601562 92.703125 205.820312 C 93.359375 206.695312 93.941406 207.277344 94.523438 207.789062 C 95.617188 208.808594 96.566406 209.464844 97.4375 210.046875 C 98.3125 210.628906 99.113281 211.066406 99.917969 211.574219 C 102.976562 213.324219 105.816406 214.5625 108.585938 215.730469 C 113.25 217.695312 117.769531 219.445312 122.285156 221.121094 C 121.703125 222.652344 121.121094 224.253906 120.535156 225.785156 C 118.570312 230.957031 116.457031 236.058594 114.34375 241.085938 C 112.15625 246.183594 109.898438 251.140625 107.496094 256.023438 C 102.683594 265.859375 97.367188 275.328125 91.171875 283.855469 C 88.039062 288.082031 84.6875 292.160156 80.972656 295.660156 C 77.257812 299.15625 73.25 302.214844 68.949219 304.328125 C 64.578125 306.441406 59.914062 307.679688 55.105469 307.609375 C 50.226562 307.609375 45.269531 306.367188 40.460938 304.257812 C 35.652344 302.144531 30.988281 299.300781 26.617188 295.949219 C 24.433594 294.273438 22.246094 292.523438 20.207031 290.632812 C 18.09375 288.808594 16.054688 286.84375 14.085938 284.875 C 13.722656 284.511719 13.136719 284.4375 12.628906 284.730469 C 12.117188 285.09375 11.972656 285.820312 12.335938 286.332031 C 13.941406 288.738281 15.6875 290.996094 17.4375 293.253906 C 19.1875 295.511719 21.152344 297.699219 23.121094 299.8125 C 27.128906 304.039062 31.644531 307.972656 36.820312 311.179688 C 41.992188 314.382812 47.894531 316.859375 54.378906 317.734375 C 60.789062 318.609375 67.566406 317.808594 73.6875 315.695312 C 79.808594 313.507812 85.34375 310.230469 90.300781 306.441406 C 95.253906 302.652344 99.625 298.355469 103.632812 293.835938 C 107.640625 289.320312 111.28125 284.582031 114.707031 279.773438 C 118.058594 274.894531 121.265625 269.9375 124.179688 264.910156 C 127.167969 259.882812 129.933594 254.710938 132.558594 249.535156 C 135.179688 244.363281 137.660156 239.117188 140.0625 233.871094 C 140.9375 231.976562 141.738281 230.082031 142.613281 228.1875 C 147.421875 229.863281 152.160156 231.46875 156.96875 233.144531 C 167.53125 236.785156 178.023438 240.503906 188.371094 244.582031 C 198.644531 248.589844 208.84375 252.960938 218.460938 258.132812 C 224.65625 261.488281 230.703125 265.203125 236.242188 269.429688 C 238.863281 278.171875 241.558594 286.914062 244.402344 295.585938 C 245.273438 298.28125 246.296875 300.976562 247.242188 303.746094 C 248.261719 306.441406 249.355469 309.136719 250.738281 311.90625 C 251.105469 312.636719 251.46875 313.289062 251.90625 314.019531 C 252.34375 314.75 252.851562 315.476562 253.65625 316.351562 C 254.089844 316.789062 254.601562 317.226562 255.621094 317.734375 C 256.058594 317.953125 256.789062 318.171875 257.515625 318.101562 C 258.246094 318.101562 259.117188 317.882812 259.703125 317.515625 C 260.941406 316.789062 261.378906 316.058594 261.742188 315.476562 C 262.105469 314.894531 262.324219 314.382812 262.46875 313.945312 C 263.125 312.125 263.417969 310.59375 263.636719 309.066406 C 263.855469 307.535156 264 306.078125 264.144531 304.546875 C 264.363281 301.414062 264.21875 298.28125 263.710938 295.222656 C 263.199219 292.160156 262.398438 289.101562 261.230469 286.1875 C 260.140625 283.273438 258.683594 280.503906 257.078125 277.878906 C 255.476562 275.257812 253.726562 272.78125 251.832031 270.375 C 248.625 266.367188 245.058594 262.726562 241.339844 259.300781 C 238.789062 248.882812 236.53125 238.390625 234.347656 227.824219 C 234.054688 226.367188 233.761719 224.910156 233.472656 223.453125 C 233.980469 223.453125 234.566406 223.453125 235.074219 223.453125 C 246.660156 223.160156 258.246094 222.140625 269.683594 220.390625 C 281.125 218.570312 292.488281 215.949219 303.492188 212.230469 C 314.492188 208.589844 325.132812 203.851562 335.113281 197.949219 C 345.09375 192.121094 354.347656 185.199219 362.582031 177.183594 C 362.945312 176.894531 363.019531 176.238281 362.65625 175.800781 Z M 176.492188 75.472656 C 176.492188 75.542969 176.566406 75.617188 176.640625 75.6875 C 176.640625 75.6875 176.640625 75.6875 176.640625 75.617188 C 176.421875 75.472656 176.421875 75.472656 176.492188 75.472656 Z M 174.527344 136.820312 C 176.128906 131.355469 177.585938 125.890625 179.117188 120.425781 C 180.648438 114.960938 182.105469 109.496094 183.5625 104.105469 C 184.070312 102.355469 184.507812 100.609375 185.019531 98.859375 C 185.238281 99.441406 185.382812 100.023438 185.601562 100.679688 C 188.878906 111.320312 191.941406 122.175781 195.074219 133.03125 C 198.207031 143.886719 201.339844 154.742188 204.546875 165.527344 C 206.148438 170.917969 207.824219 176.382812 209.425781 181.777344 L 214.382812 198.023438 L 217.371094 207.789062 C 201.265625 206.402344 185.164062 204.070312 169.136719 200.9375 C 164.328125 199.992188 159.515625 199.042969 154.707031 198.023438 C 162.140625 177.769531 168.699219 157.367188 174.527344 136.820312 Z M 102.832031 206.914062 C 102.757812 206.914062 102.683594 206.914062 102.683594 206.914062 C 102.613281 206.914062 102.683594 206.914062 102.832031 206.914062 Z M 175.839844 220.027344 C 191.140625 222.066406 206.660156 223.378906 222.179688 223.597656 L 224.292969 230.519531 L 230.339844 250.484375 C 228.664062 249.246094 226.988281 248.007812 225.3125 246.839844 C 209.574219 236.058594 192.886719 227.460938 175.839844 220.027344 Z M 258.464844 311.394531 C 258.464844 311.394531 258.390625 311.394531 258.464844 311.394531 C 258.464844 311.46875 258.464844 311.46875 258.464844 311.394531 Z M 253.363281 289.539062 C 255.546875 294.128906 256.640625 299.15625 256.570312 304.257812 C 256.570312 305.496094 256.421875 306.804688 256.351562 308.042969 C 255.332031 305.933594 254.382812 303.671875 253.507812 301.414062 C 252.488281 298.863281 251.613281 296.167969 250.738281 293.546875 C 249.867188 290.921875 249.0625 288.226562 248.261719 285.53125 C 247.605469 283.417969 247.023438 281.230469 246.441406 279.117188 C 247.535156 280.359375 248.554688 281.597656 249.5 282.90625 C 250.957031 285.019531 252.269531 287.207031 253.363281 289.539062 Z M 253.363281 289.539062 " fill-opacity="1" fill-rule="nonzero"/></g></svg>